<?xml version="1.0" standalone="no"?>
<!DOCTYPE svg PUBLIC "-//W3C//DTD SVG 20010904//EN"
 "http://www.w3.org/TR/2001/REC-SVG-20010904/DTD/svg10.dtd">
<svg version="1.0" xmlns="http://www.w3.org/2000/svg"
 width="512.000000pt" height="512.000000pt" viewBox="0 0 512.000000 512.000000"
 preserveAspectRatio="xMidYMid meet">
<metadata>
Created by potrace 1.11, written by Peter Selinger 2001-2013
</metadata>
<g transform="translate(0.000000,512.000000) scale(0.100000,-0.100000)"
fill="#000000" stroke="none">
<path d="M2385 4984 c-289 -30 -502 -79 -727 -170 -1082 -434 -1704 -1573
-1482 -2716 186 -962 943 -1725 1899 -1917 184 -37 278 -46 490 -46 212 0 306
9 490 46 1044 209 1836 1094 1934 2159 90 974 -422 1914 -1292 2370 -248 130
-497 211 -792 256 -97 14 -438 26 -520 18z m225 -873 c68 -11 1388 -549 1445
-589 56 -39 102 -104 121 -170 30 -101 5 -456 -51 -733 -51 -251 -118 -447
-240 -694 -249 -506 -646 -917 -1105 -1143 l-115 -57 -100 0 -100 0 -125 61
c-706 347 -1238 1129 -1364 2004 -37 255 -45 485 -21 567 18 59 60 121 110
159 44 33 1380 582 1445 594 25 4 45 8 45 9 0 0 25 -3 55 -8z"/>
<path d="M1917 3523 l-649 -266 7 -111 c39 -662 253 -1205 647 -1646 142 -160
371 -336 554 -425 l92 -45 56 24 c222 98 492 314 672 536 347 429 537 943 570
1541 5 102 4 127 -7 131 -8 3 -301 123 -652 267 -351 144 -639 261 -640 260
-1 0 -294 -120 -650 -266z m643 -1103 l0 -1031 -74 50 c-294 199 -533 478
-684 801 -95 203 -182 525 -198 733 l-7 83 434 178 c239 98 452 186 474 196
22 10 43 19 48 19 4 1 7 -463 7 -1029z"/>
</g>
</svg>
